# xmcd
#
# Track frame offsets:
#	150
#	38000
#	55053
#	74041
#	80236
#	109254
#	122983
#	144368
#	163385
#	183675
#	212558
#	226880
#	232237
#	249952
#	277590
#	285542
#	299412
#	313001
#
# Disc length: 4289 seconds
#
# Revision: 0
# Processed by: cddbd v1.5.1PL0 Copyright (c) Steve Scherf et al.
# Submitted via: dBpowerAMP V4.0
#
DISCID=1710bf12
DTITLE=聖經-舊約 - Disc 47
DYEAR=1900
DGENRE=
TTITLE0=以賽亞書第1章
TTITLE1=以賽亞書第2章
TTITLE2=以賽亞書第3章
TTITLE3=以賽亞書第4章
TTITLE4=以賽亞書第5章
TTITLE5=以賽亞書第6章
TTITLE6=以賽亞書第7章
TTITLE7=以賽亞書第8章
TTITLE8=以賽亞書第9章
TTITLE9=以賽亞書第10章
TTITLE10=以賽亞書第11章
TTITLE11=以賽亞書第12章
TTITLE12=以賽亞書第13章
TTITLE13=以賽亞書第14章
TTITLE14=以賽亞書第15章
TTITLE15=以賽亞書第16章
TTITLE16=以賽亞書第17章
TTITLE17=以賽亞書第18章
EXTD=
EXTT0=
EXTT1=
EXTT2=
EXTT3=
EXTT4=
EXTT5=
EXTT6=
EXTT7=
EXTT8=
EXTT9=
EXTT10=
EXTT11=
EXTT12=
EXTT13=
EXTT14=
EXTT15=
EXTT16=
EXTT17=
PLAYORDER=
